# xmcd
#
# Track frame offsets:
#	150
#	17773
#	33590
#	52864
#	71621
#	82672
#	101994
#	118036
#	134592
#	142704
#	161710
#	179185
#
# Disc length: 2475 seconds
#
# Revision: 2
# Processed by: cddbd v1.5.2PL0 Copyright (c) Steve Scherf et al.
# Submitted via: audiograbber 1.83.01
#
DISCID=a409a90c
DTITLE=Kristina Svensson - Med öppna händer
DYEAR=2005
DGENRE=Christian Rock
TTITLE0=Det jag inte vågat tro
TTITLE1=Skapa ett rent hjärta (Psalm 51)
TTITLE2=Leva med öpnna händer
TTITLE3=Får jag komma till dig?
TTITLE4=Morgonbön
TTITLE5=För vem ska jag då vara rädd (Psalm 27)
TTITLE6=Över fälten
TTITLE7=Genom nåden lever jag
TTITLE8=Hjärtats läkedom
TTITLE9=Kom närmare
TTITLE10=Så helt ifrån Gud (Psalm 139)
TTITLE11=I dina händer
EXTD=DAVCD36\nSweden
EXTT0=
EXTT1=
EXTT2=
EXTT3=
EXTT4=
EXTT5=
EXTT6=
EXTT7=
EXTT8=
EXTT9=
EXTT10=
EXTT11=
PLAYORDER=
